/* XPM */
static char *_bb1d334f3ed464da4db03bebf82aab0C9n4sNI8GhNkdC1Z[] = {
/* columns rows colors chars-per-pixel */
"128 128 48 1 ",
"  c #1C1C1C",
". c #1F1C20",
"X c #221C24",
"o c #261C2A",
"O c #291C2E",
"+ c #2D1B34",
"@ c #2F1C38",
"# c #331B3C",
"$ c #361A41",
"% c #391B45",
"& c #3C1A4A",
"* c #401B4F",
"= c #431A54",
"- c #461959",
"; c #4A1A5E",
": c #4D1963",
"> c #501967",
", c #54196C",
"< c #571970",
"1 c #5A1974",
"2 c #5E197A",
"3 c #61187E",
"4 c #651884",
"5 c #6B178D",
"6 c #69188A",
"7 c #6F1892",
"8 c #711795",
"9 c #75179B",
"0 c #78179F",
"q c #74189A",
"w c #8116AD",
"e c #8516B2",
"r c #8816B7",
"t c #8B16BC",
"y c #8F15C1",
"u c #9215C5",
"i c #9515CA",
"p c #9915CE",
"a c #9C14D4",
"s c #9F14D8",
"d c #A314DD",
"f c #A514E1",
"g c #AA13E6",
"h c #AD14EB",
"j c #B013EF",
"k c #B313F3",
"l c #B713F9",
"z c #BB13FF",
/* pixels */
"                       -hzzzzzzzzzzh=                                         X              #whzzzzzzzzzz;           .   XXO@%*",
"                       :hzzzzkzzzzzd%                                        XX              @4gzzzlhzzzzk<         oOOX..  .  X",
"                       $tlzzl2hzzzg6o                                       OO               o:dzzza<zzzzp%         O@+oXXX     ",
"                       oezzzkXfzzzg>.                                                         *dzzzu@zzzzyO           .. .      ",
"                       OtzzzkXgzzzj<                                                          =gzzzu+lzzzt@                     ",
"                       +izzzlXgzzzk2X                                                         >hzzzu+zzzzu#                     ",
"                       #azzzkXgzzzk3X                                                         <hzzzu+zzzzu#                     ",
"                       #dzzzlXgzzzk3X                                                         2jzzzuOlzzzi%                     ",
"                       &dzzzkogzzzk3X                                                        X2kzzzpOlzzzi%                     ",
"                      .*gzzzkogzzzz6X                                                        X3kzzziOlzzzp%.                    ",
"                      .-gzzzkXgzzzl6X                                                        X3kzzzpOkzzzp%.                    ",
"                      .;glzzkXgzzzl6X                                                        X4kzzzpozzzzp%.                    ",
"                      .:hzzzk.gzzzl6                                                         .4kzzzaokzzzp*                     ",
"                      .:hzzzkXgzzzl7                                                         X4kzzzfokzzza%.                    ",
"                      X>hzzzkXgzzzk3X                                                        X4kzzzdXkzzza*                     ",
"                      .>hzzzkogzzzzwX                                                        X4kzzzfXkzzzs*                     ",
"                      .>jzzzkXhzzzz3X                                                        X6kzzzdXkzzzs*.                    ",
"                      .,jzzzkogzzzzwX                                                        .4lzzzdXzzzzs*.                    ",
"                      .,kzzzkXgzzzhwX                                                        X6kzzzfXkzzzd*.                    ",
"                      X<jzzzkXhzzzk3X                                                        X6kzzzdXlzzzd*                     ",
"                      .1kzzzkXgzzzzwX                                                        X6kzzzfXkzzzd=.                    ",
"                      .1lzzzkXgzzzlwX                                                        X6lzzzfokzzzd=.                    ",
"                      .1kzzzkXgzzzhwX                                                        X7kzzzdXkzzzd=.                    ",
"                      .3kzzzjXhzzzkwX                                                        X7lzzzdXkzzzg=.                    ",
"                      X3lzzzkXhzzzzw                                                         .7lzzzfXkzzzg=.                    ",
"                      X3lzzzkXgzzzzw                                 .                       .7lzzzfXlzzzg-.      .        .   X",
"                 ..   X3kzzzkXhzzzlw...  . ..... .........XX.XX..X  XXXXXXXXXXXXXX X.X    XX.owlzzzf+kzzzh>OOOOOO+@@@##@+###$%%%",
"...ooXoXoOOOOO+O++@@@@$7lzzzk*hzzzzr**=;*;;;;;;;:::>>><<<<<11112222233333636666776773w7w7w7w7wuzzzzkwzzzzkurrerrrrrrtttutuiippas",
",378q90wwwwweertrrtttiidzzzzzdlzzzzkdddffffggggggghhhhhhjjjhjhkkjjkkkklkkkzkkkzkkkzlllzlklzzllzzzzzzzzzzzzzzzzzzzzzzzzzzzzzzzzzz",
"dhkllllkzzkllzzzzzzzzzzzzzzzzzzzzzzzzzzzzzzzzzzzzzzzzzzzzzzzzzzzzzzzzzzzzzzzzzzzzzzzzzzzzzzzzzzzzzzzzzzzzzzzzzzzzzzzzzzzzzzzzzzz",
"lzzzzzzzzzzzzzzzzzzzzzzzzzzzzzzzzzzzzzzzzzzzzzzzzzzzzzzzzzzzzzzzzzzzzzzzzzzzzzzzzzzzzzzzzzzzzzzzzzzzzzzzzzzzzzzzzzzzzzzzzzzzzzzz",
"zzzzzzzzzzzzzzzzzzzzzzzzzzzzzzzzzzzzzzzzzzzzzzzzzzzzzzzzzzzzzzzzzzzzzzzzzzzzzzzzzzzzzzzzzzzzzzzzzzzzzzzzzzzzzzzzzzzzzzzzzzzlzzzz",
"zzzzzzzzzzzzzzzzzzzzzzzzzzzzzzzzzzzzzllllllklllkkkkkkkkkkkkkkkhkjhjjjhjhhhhhhhgppppppteeeerw7wazzzzk6lzzzkw<<<>:>;:;*%%###OOO.XX",
"7,,,:=-=-=*#%**%&%##%##7lzzzk$hzzzlw#@####$#####%%%%%&%&%%%$%%%%&%*%%%%%%%%%%%%*%%$#$%%*&%***;rzzzzk,lzzzkw,<134444467w4667www7w",
",**%*=-===->>,,,<366666izzzzlrzzzzzhggggghjhhjjjjjkkkkjkkkkkkkkkkkklllllkzzlzklllllzzzzzzzzzzzzzzzzzzzzzzzzzzzzzzzzzzzzzzzzzzzkz",
"zzzzzzzzzzzzzzzzzzzzzzzzzzzzzzzzzzzzzzzzzzzzzzzzzzzzzzzzzzzzzzzzzzzzzzzzzzzzzzzzzzzzzzzzzzzzzzzzzzzzzzzzzzzzzzzzzzzzzzzzzzzzzzzz",
"zzzzzzzzzzzzzzzzzzzzzzzzzzzzzzzzzzzzzzzzzzzzzzzzzzzzzzzzzzzzzzzzzzzzzzzzzzzzzzzzzzzzzzzzzzzzzzzzzzzzzzzzzzzzzzzzzzzzzzzzzzzzzzzz",
"lzzzzzzzzzzzzzzzzlzzzzzzzzzzzzzzzzzzzzzzzzzzzzzzzzzzzzzzzzzzzzzzzzzzzzzzzzzzzzzzzzzzzzzzzzzzzzzzzzzzzzzzzzzzzzllzlkkzzkhzzkkzkzz",
"djklzllzzlklzlzzklllzllzzzzzzzzzzzzzzlkllklkkklkjkjjjjjjhhhhggggggggdddgdddsaasaappppiiuuuutttgzzzzlrzzzzlpwwwwwwwwwwwwww7w77ww7",
"36q900009ww00000w000qq0izzzzzqkzzzzp766663633333322111<<<<,>>>>:;;;;;;===******%%%%%$$$$####+#wlzzzh#kzzzk2OXXoXXX X.X  XXXXXXXX",
"XoXOooooXoXoXXoXXXXXXXo5lzzzhohzzzjwo.XXXXX.XX......X.....      XX   X X ...  . ... .        X7kzzzhXkzzzk1.                    ",
"                  .   X5zzzzkXhzzzk7X   ..                                                   XwzzzzhOkzzzk1X                    ",
"                      X6lzzzhXhzzzkwX                                                        XwkzzzhXkzzzk1.                    ",
"                      X5zzzzkXhzzzkwX                                                        XwhzzzfXkzzzk1.                    ",
"                      X5lzzzjohzzzzwX                                                         wzzzzhXkzzzl1X                    ",
"                      X5lzzzhXhzzzk7X                                                         wkzzzgXkzzzk2.                    ",
"                      X6zzzzjohzzzlwX                                                        XwjzzzgXkzzzl2.                    ",
"                      X5zzzzhohzzzk7X                                                        XwzzzzgXkzzzk2.                    ",
"                       4lzzzhohzzzlw                                                         XwkzzzgXkzzzk2X                    ",
"                      .5zzzzhXhzzzl7.                                                        XwjzzzgXkzzzk4                     ",
"                      X7lzzzhXhzzzl6.                                                        .wzzzzhXkzzzl4                     ",
"                      .7zzzzhXhzzzzw.                                                         wkzzzhXkzzzl4X                    ",
"                      X7lzzzjXjzzzk6.                                                         wjzzzg kzzzl4X                    ",
"                      .7zzzzjXjzzzlwX                                                        XwzzzzhXkzzzl4X                    ",
"                      X7lzzzjXjzzzl7.                                                        XwzzzzgXkzzzl4X                    ",
"                      X7zzzzjXhzzzz8X                                                        XwkzzzhXkzzzl4X                    ",
"                      X7lzzzhohzzzz7X                                                        XwlzzzgXkzzzz4X                    ",
"                      X7lzzzjXhzzzjw.                                                         wzzzzgXhzzzk4X                    ",
"                      X7zzzzhXhzzzk7X                                                        XwkzzzhXkzzzz4X                    ",
"                      X7zzzzhXhzzzz7X                                                        XwkzzzhXhzzzl4X                    ",
"                      X7zzzzjojzzzz7.                                                        XwkzzzhXkzzzz4X                    ",
"                      X8lzzzhXhzzzl7X                                                        XwkzzzhXkzzzl6X                    ",
"                      X8zzzzhXhzzzz7X                                                        .wlzzzhXkzzzz6.                    ",
"                      X8lzzzhohzzzl7.                                                         wzzzzhXkzzzk6                     ",
"                       wzzzzhojzzzz7.                                                        .wkzzzhXjzzzz6X                    ",
"                       3zzzzhohzzzl5.                                                        .wjzzzgXhzzzl6.                    ",
"                       wzzzzhXjzzzl7X                                                        .wkzzzhojzzzz6.                    ",
"                       wlzzzhXjzzzl5X                                                         wkzzzhXjzzzz6X                    ",
"                      X6zzzzhXhzzzl7                                                          wjzzzhXjzzzl6X                    ",
"                      XwlzzzhXjzzzl5                                                         .wkzzzgXhzzzz6X                    ",
"                      .7zzzzhXjzzzl5                                                         XwkzzzhXjzzzl6.                    ",
"                      .wzzzzhXjzzzz3                                                         XwhzzzhXkzzzz6.                    ",
"                       wzzzzhXkzzzl3o                                                         wzzzzhXjzzzl6X                    ",
"                      .6lzzzhXjzzzl5X.                                                        wkzzzhXkzzzz7X                    ",
"                      XwzzzzhXjzzzz5X                                                         7kzzzhXjzzzl7X                    ",
"                      .7zzzzhXjzzzz3.                                                        .wlzzzhXkzzzz7X                    ",
"                      .wlzzzhXkzzzz6X                                                        XwjzzzhXjzzzz4                     ",
"                      .7zzzzhXjzzzl6X                                                        .whzzzhXhzzzlw.                    ",
"                      .wzzzzgXjzzzz3X                                                        .wlzzzhXjzzzz7X                    ",
"                       wzzzzhXhzzzz3.                                                        .7jzzzjXjzzzz7.                    ",
"                       wgzzzhXkzzzz3X                                                        .wgzzzhOjzzzzw.                    ",
"                       wkzzzhXkzzzz3X                                                        XwlzzzhXjzzzl3X                    ",
"                       wzzzzhXkzzzz3X                                                        XwzzzzhXhzzzl3.                    ",
"                       wzzzzhXjzzzz3.                                                        X6lzzzhXhzzzzw.                    ",
"                       wlzzzgXkzzzz3o.                                                       XwzzzzkXhzzzlw                     ",
"                       wzzzzgXkzzzz3X                                                        .3lzzzjXhzzzzw                     ",
"                      .wzzzzgXkzzzz3X                                                        X3lzzzhXhzzzk3.                    ",
"                       wzzzzgXkzzzz3X                                                        XwzzzzhXhzzzhw.                    ",
"                      XwzzzzhXkzzzz3X                               .                        .wlzzzhXhzzzzw                .    ",
"          ..... ......XwzzzzgXkzzzl3X.... ..XXX X ...XXXXXXXXXXX  . XXX.XXX...XX..XX   ..XXX..6kzzzjOjzzzl7OXOooOOOO++++OO+@@###",
"##%$%%%%#%%%*****===*=;tzzzzh>zzzzlw<>,,,,,<<1111222233333333336533335w3w35ww33w3ww3wwwwwwwwwwazzzzzwzzzzzdreeeerrrtrtyytyyiippa",
"wrrtttyituipipppaaaasdfkzzzzlgzzzzzkgghhhhhhhhhhjhhjjjhjjkkkkkklkkkzkkhkhkjgllklllllkjhzglkhzlzzzzzzlzzzzzzzzlzzzzzzzzzzzzzzzzzz",
"jkzzzlzllzzzzzlzzzzzzzzzzzzzzzzzzzzzzzzzzzzzzzzzzzzzzzzzzzzzzzzzzzzzzzzzlzzzzzzzzzzzzzzzkzzzzzzzzzzzzzzzzzzzzzzzzzzzzzzzzzzzzzzz",
"zzzzzzzzzzzzzzzzzzzzzzzzzzzzzzzzzzzzzzzzzzzzzzzzzzzzzzzzzzzzzzzzzzzzzzzzzzzzzzzzzzzzzzzzzzllzzzzzzzzzzzzzzzzzzzzzzzzzzzzzzzzzzzz",
"zzzzzzzzzzzzzzzzzzzzzzzzzzzzzzzzzzzzzzzzzzzzzzzzzzzzzzzzzzzzzzzzzzzzzzzzzzzzzzzzzzzzzzzzzzzkzlzzzzzzzzzzzzzzzzzzzzzzzzzzzzzzzzzz",
"zkzkllllkllklkkkllkkklkzzzzzzkzzzzzlhkhkhkkhkhhkjhjhjjhhghgggggggspipiiiiuitrwwwwewwwww3w36ww6izzzzl3kzzzzt<>,:>:::;**%####%#%##",
"***==&*&%%$##$#$#$#$$$%ezzzzj*jzzzl7$###$#$$$$$$$#####$$#$$#$###+##########+##$##%#%%%%&**%&**wzzzzz>kzzzzr>>>>>>>>;>;>;>;>>>>><",
"jjjjjjjjjjjhjjjkkjjjjjjlzzzzzkzzzzzzkkkkkkkkkkkllkllkkkllzzllzlzlzzzzzzzzzzzzzzzzzzzzzzzzzzzzzzzzzzzzzzzzzzzzzzzzzzzzzzzzzzzzzzz",
"zzzzzzzzzzzzzzzzzzzzzzzzzzzzzzzzzzzzzzzzzzzzzzzzzzzzzzzzzzzzzzzzzzzzzzzzzzzzzzzzzzzzzzzzzzzzzzzzzzzzzzzzzzzzzzzzzzzzzzzzzzzzzzzz",
"zzzzzzzzzzzzzzzzzzzzzzzzzzzzzzzzzzzzzzzzzzzzzzzzzzzzzzzzzzzzzzzzzzzzzzzzzzzzzzzzzzzzzzzzzzzzzzzzzzzzzzzzzzzzzzzzzzzzzzzzzzzzzzzz",
"lzllzzzzzzzzzzzzzzzzzzzzzzzzzzzzzzzzzzzzzzzzzzzzzzzzzzzzzzzzzzzzzzzzzzzzzzzzzzzzzzzzzzzzzzzzzzzzzzzzzzzzzzzzzzzzzlzlzzzllzzzzzzz",
"asddffddfffffffffgffffgzzzzzzfzzzzzhdddfddsdsdsssssssssaapapapppppppppupiiuuiiuuuyyyuttuttttrtdzzzzztzzzzzdreeweeweweweeeeeerrrr",
"-:::::::;:::::;:::::::>tzzzzj>lzzzkw;;==-=-=-===*=*************%%%%%%$$$$$$$############@#@@@#wzzzzk#hzzzkw@OOXXOOXOOXOXXooooooo",
"..... ......... .... .owzzzzgokzzzk1............ . ... .        .... .. .....   . .        . .3kzzzhXgzzzjwX                    ",
"                      Xwzzzzhojzzzk1X.                                                       .whzzzjXhzzzzw                     ",
".                     owzzzzgokzzzl1..                                                       X6lzzzj.hzzzzw.                    ",
"                      owzzzzgXkzzzl1.                                                        X6lzzzj.gzzzkw                     ",
"                      XwzzzzfXkzzzl1.                                                        X6zzzzjXhzzzhw                     ",
"                      Xwzzzzf.lzzzk1.                                                        X6lzzzk.hzzzzw                     ",
"                      owzzzzf.lzzzk1.                                                        X6zzzzj.hzzzzwX                    ",
"                      XezzzzfXkzzzk<.                                                        .6zzzzkXhzzzzw                     ",
"                      oezzzzfXlzzzk<.                                                        X3zzzzkXhzzzkw                     ",
"                      owzzzzdokzzzk<.                                                        X6lzzzjXhzzzkw.                    ",
"                      Xezzzzdokzzzk<.                                                        X6lzzzjXhzzzhw                     ",
"                      oezzzzdolzzzj<.                                                        X3lzzzjohzzzzw                     ",
"                      XwzzzzfXlzzzk<.                                                        X6zzzzhXhzzzzwX                    ",
"                      oezzzzdXlzzzk<.                                                        X3zzzzkXhzzzlw                     ",
"                      XezzzzdXkzzzk<.                                                        .6lzzzkXhzzzzw.                    ",
"                      XezzzzdXlzzzk,.                                                        X3zzzzjXhzzzlw                     ",
"                      XezzzzfXlzzzk,.                                                         3zzzzjXhzzzkw.                    ",
"                      oezzzzgXkzzzk,.                                                         ;lzzzjXhzzzzwX                    ",
"                      oezzzzdokzzzk,.                                                         $kzzzkXhzzzzw                     ",
"                      Xezzzzdolzzzj,.                                                         OhzzzkXgzzzzw.                    ",
"                      XezzzziXlzzzk,.        . .          .    .                              XdzzzkXhzzzkw.                    ",
"  X                   orzzzzi+lzzzk,      .XXXXXXXXX...X......                                Opzzzk1kzzzzuX                    ",
"OoXX  .               *hzzzzjpzzzzz3      .X....X.......  .                                   Xpzzzzkzzzzzh#                    ",
"                      -zzzzzzzzzzzz>            .                                             Xyzzzzzzzzzzh#                    ",
" . XOOOX              %zzzzzzzzzzzz>      ..                                                  Xtzzzzzzzzzzh#                    "
};
