/* XPM */
static char *ecf8db80d36a43a3a4d7c1e1472ad762b7ytzsGu3AM6FrSG[] = {
/* columns rows colors chars-per-pixel */
"128 128 63 1 ",
"  c #292F24",
". c #2C3226",
"X c #2E3528",
"o c #30362A",
"O c #343B2D",
"+ c #393F30",
"@ c #3D4332",
"# c #404734",
"$ c #434936",
"% c #454B38",
"& c #494F3A",
"* c #4D533D",
"= c #51573F",
"- c #595E43",
"; c #5D6246",
": c #576844",
"> c #5D6D44",
", c #5C6D48",
"< c #606447",
"1 c #626649",
"2 c #65694B",
"3 c #6A6E4E",
"4 c #66764F",
"5 c #6B704F",
"6 c #6D7251",
"7 c #6A7A51",
"8 c #717553",
"9 c #767956",
"0 c #777B58",
"q c #7A7D59",
"w c #738257",
"e c #768458",
"r c #7C835B",
"t c #7E8B5D",
"y c #82855E",
"u c #868B61",
"i c #8A8D63",
"p c #869262",
"a c #8E9266",
"s c #929569",
"d c #969A6B",
"f c #9A9C6E",
"g c #99A26E",
"h c #9FA271",
"j c #A1A372",
"k c #A7AA75",
"l c #AAAB77",
"z c #ADAE78",
"x c #AEB07A",
"c c #B2B37C",
"v c #B6BA7F",
"b c #BBBD82",
"n c #BFC084",
"m c #C2C386",
"M c #C6C688",
"N c #C5C889",
"B c #CACA8B",
"V c #D0D08F",
"C c #D3D391",
"Z c #D7D894",
"A c #DADA96",
"S c #DEDD98",
"D c #E2E29B",
/* pixels */
"                       2:>>>>>>>>>>><                                        ...             #j>>>>>>>>>>>>             . XXo#&-",
"                       5:>>14>>>>>>i$                                       .X.              #h>>>>>>>>>>>y         XOXXX  ..   ",
"                       &C>>>>y>>>>>dX                                      .o..              X6s>>>Mr>>>>D&         o#+XXX.     ",
"                       XM>>>>.t>>>>6.                                       .                 -k>>>Z#>>>>CO                     ",
"                       OC>>>>.>>>>>y                                                          <4>>>Z@>>>>C@                     ",
"                       @A>>>>.:>>>>y.                                                         3>>>>Co>>>>Z#                     ",
"                       #Z>>>>X:>>>>i.                                                        .y>>>>Z@>>>>Z&                     ",
"                       &z>>>>X>>>>>sX                                                        Xy>>>>Zo>>>>Z*                     ",
"                       =p>>>>X:>>>>d.                                                        .y>>>>D+>>>>S*                     ",
"                      .-4>>>>X:>>>>d.                                                        Xi>>>>D.>>>>D=                     ",
"                       1>>>>>.>>>>>fX                                                        Xi>>>>DO>>>>D=                     ",
".                     .3>>>>>X:>>>>dX                                                        .a>>>>DO>>>>D=                     ",
"                      .3>>>>:X:>>>>dX                                                        .s>>>>Z.>>>>D=                     ",
"                      .5:>>>>.:>>>>h.                                                        .a>>>>y.>>>>D=                     ",
"                      X7>>>>>X:>>>>j.                                                        .s>>>>p.>>>>D=                     ",
"                     ..7:>>>>X:>>>>jX                                                         s>>>>p.>>>>M=                     ",
"                      .9:1>>>X:>>>>jX                                                        Xs>>>>wX>>>>B-                     ",
"                       0>>>>>X>>>>>l.                                                        .s>>>>yX>>>>b-                     ",
"                       9>>>>>X:>>>>lX                                                        Xf>>>>yX>>>>z-.                    ",
"                      .q>>>>>X:>>>>l.                                                        Xd>>>>y.>>>>d-                     ",
"                      .y>>>>>.:>>>>z.                                                        .d>>>>tX>>>>u-                     ",
"                      .y>>>>>.:>>>>z.                                                        .d>>>>p.>>>>p>                     ",
"                      .y>>>>>.:>>>>z..                                                       .f>>>>pX>>>>e>                     ",
"                      .u>>>>>X:>>>>zX                                                        .f>>>>pX>>>>5<                     ",
"                      .a>>>>>X:>>>>cX                                                        Xj>>>>p >>>>>>                     ",
"                      .y>>>>>.:>>>>v.                                                        .j>>>>t.>>>>>>    .         X  .  .",
"                      Xp>>>>:X:>>>>cX.... . . ...... ........ ..XX..XXXXXXXXXXXXXX X.......XXOl>>>>pO>>>>>6OXOOO++O@@@####%%%***",
" XXXXXXXXXXXOO+OO+####&g>>>>>:>>>>>V>--<;1123224388689999qryyyyyyyayyaasaassdddhffjjhjklkkzzzcD>>>>>n>>>>>SMMMMMBMBBVVZACZSSDDDM",
"9ihlzzzcvnnnnMMVBBVCZZAt>>>>>D>1>>>>ggtpr4,>>>>>::>>>>:>>>:>>>:>>>>>>>>>>>>>>>>>>>>>>>>>>>>>>>>>>>>>>>>>>>>>>>>>>>>>>>>>>>>>>>>>",
"a>>>>>>>>>>>>>>>>>>>>>>>4>>>>>>>>>>>>>>>>>>>>>>>>>>>1>>>>>>>>>>>>>>>>>>>>>>>>>>>>>>>>>>>>>>>>>>>>>>>>>>>>7>>>>>>>>>>>>>>>>>>>>>>",
">>>>>>>>>>>>>>>>>>>>>>>>>>>>>>>>>>>>>>>>>>>>>>>>>>>>>>>>>>>>>>>>>>>>>>>>>>>>>>>>>>>>>>>>>>>>>>3>>>>>>>>>>>>>>>>>>>>>>>>>>>>>>>>>",
">>>>>>>>>>>>>>>>>>>>>>>>>>>>>>>>>>>>>>>>>>4>>>>>>>>>>>>>>>>>>>>>>>>>>>>>>>>>>>>>>>>>>>>>>>>>>>>>>>>>>>>>>>>>>>>>>>>>>>>>>>>>>>>>",
">>>>>>>>>>>>>>>>>>>>>>>>>>>>>>>>>>>>>>>>>>>>>>>>>>>>>>>>>>>>>::>:>:>:>>>>>><>>>DDDDDAVMBMMmblcD>>>>>g>>>>>vye965633>-**&%#+OOXXO",
"h9q83<<<<-=&**=*=$%%%$$j>>>>>&>>>>>n#O#$#$###$$$&#***&&*&&&$*********&*&&&&**===&*&%&&=====-;3m>>>>>7>>>>>xyryisdassdljdfdkczzll",
"y*===<<<<<<689y8yadddddS>>>>>V>>>>>>>>>>>>>::>>>>>>>>>>>>>>>>>>>>>>>>>>>>>>>>>>>>>>>>>>>>>>>>>>>>7>>>>>>>>>>>>>>>>>>>>>>>>>>>>>>",
">>>>>>>>>>>>>>>>>>>>>>>>>>>>>>>>>>>>>>>>>>>>>>>>>>>>>>>>>>>>>>>>>>>>>>>>>>>>>>>>>>>>>>>>>>>>>>>>>>>>>>>>>>>>>>>>>>>>>>>>>>>>>>>>",
">>>>>>>>>>>>>>>>>>>>>>>>>>>>>>>>>>>>>>>>>>>>>>>>>>>>>>>>>>>>>>>>>>>>>>>>>>>>>>>>>>>>>>>>>>>>>>>>>>>>>>>>>>>>>>>>>>>>>>>>>>>>>>>>",
">>>>>>>>>>>>>>>>>>>>>>>>>>>>>>>>>>>>>>>>>>>>>>>>>>>>>>>>>>>>>>>>>>>>>>>>>>>>>>>>>>>>>>>>>>>>>>>>>>>>>>>>>>>>>>>>>>>>>>>>>>>>>>>>",
">>>>>>>>>>>>>>>>>>>>>>>>>>>>>>>>>>>>>>>>>>>>>>>>>>->>>>->>::>::>:>>>4epygkvBCMZDDDDDDAAAACCCVC>>>>>>C>>>>>Dnbbnbnvzvzvzzzzzzzzzz",
"ysjlzcccvvccccvcczzzzlzS>3>>>z>>>>>Dkfddssasaayyiuyyyyyq99998665325221;><<;=;===****&%%%$#####b>>>>>#>>>>>pXXXXXXXXXXXXXXXXXXXXX",
" XXXXXXX.XXXXX.XXXXXXXXf>>>>:X>>>>>zXX.XX.X.X....... .......... .. .  .    .  .   .  .       Xz>>>>>.>>>>>t                     ",
". . . .        .      Xd>>>>>.>>>>>zX                            .                           Xz>>>>>X>>>>>y                     ",
"                      .d>>>>:X:>>>>z.                                                        Xz>>>>>X>>>>>y                     ",
"                      .f>>>>>.>>>>>zX                                                        Xc>>>>>X>>>>>y.                    ",
"                      Xd>>4>:.>>>>>z.                                                        Xz<>>>>.>>>>>y.                    ",
"                      Xf>>>>>.:>>>>kX                                                        .v>>>>>.>>>>>y.                    ",
"                      Xf>>>>>.>>>>>k.                                                        Xc>>>>>.>>>>>y.                    ",
"                       g>>>>:.:>>>>lX                                                        Xc>>>>>.>>>>>y                     ",
"                      .f>>>>>X>>>>>k.                                                        Xc>>>>-X>>>>>i.                    ",
"                      .f>>>>>X:>>>>k.                                                        Xc>>>>>X>>>>>i.                    ",
"                      .h>>>>>.:>>>>k.                                                        Xc>>>>>X>>>>>i.                    ",
"                      .h>>>>>.>>>>>k.                                                        Xc>>>>>.>>>>>s.                    ",
"                      .j>>>>> >>>>>jX                                                        Xz>>>>> >>>>>a.                    ",
"                      .j>>>>> :>>>>j..                                                        v>>>>> >>>>>s.                    ",
"                      .j>>>>>.:>>>>j.                                                        Xv>>>>>.>>>>>s.                    ",
"                      .j>>>>>.>>>>>j.                                                        Xc>>>>>.>>>>>d.                    ",
"                      .j>>>>> >>>>>kX                                                        Xc>>>>> >>>>>s.                    ",
"                      .j>>>>>.>>>>>j.                                                        Xv>>>>> >>>>>s.                    ",
"                      .j>>>>: :>>>>jX                                                        Xv>>>>> >>>>>d.                    ",
"                      .j>>>>> >>>>>j.                                                        Xc>>>>> >>>>>d.                    ",
"                      .j>>>>>X>>>>>j                                                         Xc>>>>-.>>>>>d.                    ",
"                      .j>>>>>X>>>>>j.                                                        Xc>>>>>.>>>>>d.                    ",
"                      .k>>>3>.>>>>>j.                                                        Xc>>>>>.>>>>>f.                    ",
"                      Xl>>>>>.>>>>>jX                                                        Xc>>>>>.>>>>>fX                    ",
"                       k>>4>:X>>>>>h.                                                        .c>>>>> <>>>>fX                    ",
"                      Xk>>>>>X:>>>>f.                                                        Xc>>>>>.>>>>>dX                    ",
"                      Xk>>>>:X:>>>>f..                                                       .z>>>>> >>>>>dX                    ",
"                      Xk>>>>:.>>>>>f..                                                       Xz>>>>>X>>>>>fX                    ",
"                      Xk>>>>:.>>>>>h..                                                       Xc>>>>:X>>>>>fX                    ",
"                      Xk>>>>>.:>>>>d.                                                        Xz>>>>: >>>>>fX                    ",
"                       z>>>>>.>>>>>d..                                                       Xz>>>>> >>>>>dX                    ",
"                      Xk>>>>:.:>>>>d.                                                        Xz>>>>>X>>>>>d                     ",
"                      Xk>>>>>X:>>>>d.                                                        .z>>>>>.>>>>>g.                    ",
"                      Xl>>>>>X>>>>>d.                                                        .l>>>>>.>>>>>g.                    ",
"                      Xz>>>>>.>>>>>dX                                                        .l>>>>>.>>>>>j.                    ",
"                       l>>>>>.>>>>>f.                                                        .l>>>>>X>>>>1j.                    ",
"                      Xl>>>>>.>>>>>s.                                                        .l<>>>> >>>>>jX.                   ",
"                      Xz>>>>:.:>>>>dX                                                        .l>>>>> :>>>>j.                    ",
"                      Xz>>>1:.>>>>>sX                                                        .k>>>>>.>>>>>j.                    ",
"                      Xz>>>>>.>>>>>sX                                                         k>>>>>.>>>>>jX                    ",
"                       c>>>>:.>>>>>dX                                                        .k>>>>>.>>>>>k.                    ",
"                      Xc>>>>>.:>>>>sX                                                        Xl>>>>-.>>>>>h.                    ",
"                       v>>>>>.>>>>>sX                                                        Xl>>>>>X>>>>>h.                    ",
"                      .c>>>>:.:>>>>sX                                                        .l>>>>>.>>>>>k.                    ",
"                     ..c>>>>>X>>>>>a.                                                        .k>>>>>.>>>>>k                     ",
"                     .Xc>>>>>X:>>>>s.                                                         j>>>>>.>>>>>k.                    ",
"                      Xx>>>>>.>>>>>sX                                                        Xh>>>>>.>>>>>k                     ",
"                      Xc>>>>>.>>>>>s.                                                        .j>>>>> >>>>>k                     ",
"                      Xc>>>>>X>>>>>a   .              .   ..        .  .                     .j>>>>>.>>>>>lX         . .        ",
" .   .         ..  .  Xc>>>>>O>>>>>aX..   . ..........XX....X XX.XX.........X XX XXX.XXXXXXX.Ol>>>>>o>>>>>z+XXXXXXO+OO++O++####$",
"##%%%&&*=*===<-==<<><<2V>>>>>5>>>>>vq989q99erryyrryyyyiyyayaaaaasssddddgddgghjjjhjjkkkkzlzzzzvD>>>>>b>>>>>zMmmmMMBMBBVZCCCZZSDDD",
"bMBBCCCZZSASDDDDDDCDBbg>>>>>>>>>>>>>:>:>>;>>>;:>:>>>>>>:>>>>>>>>>>:>>>>>>>>1>>>>>>>>>>>>>>>>>>>>>>>>>>>>>>>>>>>>>>>>>>>>>>>>>>>>",
">>><>>>>>>>>>>>>>>>>>>>>>>>>>>>>>>>>>>>>>>>>>>>>>>>>>>>>>>>>>>>>>>>>>>>>>>>>>>>>>>>>>>>>>>>>>>>>>>>>>>>>>>>>>>>>>>>>>>>>>>>>>>>>",
">>>>>>>>>>>>>>>>>>>>>>>>>>>>>>>>>>>>>>>>>>>>>>>>>>>>>>>>>>>>>>>>>>>>>2>>>>>>>>>>>>>>>>>>>>>>>>>>>>>>>>>>>>>>>>>>>>>>>>>>>>>>>>>>",
">>>>>>>>>>>>>>>>>>>>>>>>>>>>>>>>>>>>>>>>>>>>>>>>>>>>>>>>>>>>>>>>>>>>>>>>>>>>>>>>>>>>>>>>>>>>>>>>>>>>>>>>>>>>>>>>>>>>>>>>>>>>>>>>",
">>>>>>>>>>>>>>>>>>>>>>>>>>>>>>>>>>>>:>:>>>>:>>>>::>>>>>:::>>:>;>>NDSDADADAABBnnnnnnnnnzjjjjjkzS>>>>>d>>>>>Vq99665563>=%$$&$%$&$#",
"-----===**%@%$$%$#%%$$*m>>>>>=>>>>>k$###%#%%%%$$$$$#$#$%&&&$$$%$##$%$%$%$$$#%$%$%&&*&*==-===*<v>>>>>y>>>>>V88896666>63653566666y",
">>;>>>>>>>>>:>>>>>:>::>>>>>>>>>>>>>>>>>>>>>>>>>>>>>>>>>>>>>>>>>>>>>>>>>>>>>>>>>>>>>>>>>>>>>>>>>>>>>>>>>>>>>>>>>>>>>>>>>>>>>>>>>>",
">>>>>>>>>>>>>>>>>>>>>>4>>>>>>>>>>>>>>>>>>>>>>>>>>>>>>>>>>>>>>>>>>>>>>>>>>>>>>>>>>>>>>>>>>>>>>>>>>>>>>>>>>>>>>>>>>>>>>>>>>>>>>>>>",
">>>>>>>>>>>>>>>>4>>>>>>>>>>>>>>>>>>>>>>>>>>>>>>>>>>>>>>>>>>>>>>>>>>>>>>>>>>>>>>>>>>>>>>>>>>>>>>>>>>>>>>>>>>>>>>>>>>>>>>>>>>>>>>>",
">>>>>>>>>>>>>>>>>>>>>>>>>>>>>>>>>>>>>>>>>>>>>>>>>>>>>>>>>>>>>>>>>>>>>>>>>>>>>>>>>>>>>>>>>>>>>>>>>>>>>>>>>>>>>>>>>>>>>>>>>>>>>>>>",
"Dvgypppprre77444444444>>>>>>>w>>>>>>waffghkkkzbMMZZZDMMZADDDDDDDDDDDDDSSSSASAZZZZVCCVVVVCVBBBVy>>>>>V>>>>>pMMMmmMMnnnnnMmnMMBBBB",
">3253553333355555255258A>>>>>8>>>>>c3><<<<<<><<<;:------=======**=**&&&&&$$%%%%$$##########@@#l>>>>>@>>>>>v#oXXOXXOXXXXXXXXXXXXX",
".... .. ...... .......Ov>>>>>o>>>>>y . . .              ... .   .   . . .. . . .  ..     .  ..f>>>>>.>>>>>zX          .     .   ",
"                      .n>>>>>X>>>>>y.                                                         f>>>>>.>>>>>z.                    ",
".                     .n>>>>4X>>>>>y.                                                       .Xd>>>>> >>>>>x.                    ",
"                      .n>>>>>.>>>>>y.                                                        Xd>>>>>.>>>>>xX                    ",
"                      .n>>>>4 >>>>>y.                                                         h>>>>> >>>>>x.                    ",
"                      Xn>>>>p.>>>>>q.                                                        Xd>>>>>.>>>>>x.                    ",
"                      Xn>>>>eX>>>>>y.                                                         d>>>>> >>>>>v.                    ",
"                      Xn>>>>t.>>>>>y.                                                        Xd>>>>>.>>>>>v.                    ",
"                      XM>>>>eX>>>>>q.                                                        Xs>>>>>.>>>>>v.                    ",
"                      .n>>>>p >>>>>q..                                                       Xd>>>>>.>>>>>cX                    ",
"                      Xm>>>>p@>>>>>q.                                                        Xd>>>>>.>>>>>cX                    ",
"                      Xm>>>>eX>>>>>9.                                                        Xs>>>>-X>>>>>cX                    ",
"                     .Xn>>>>w.>>>>>9                                                         Xs>>>>>.>>>>>cX                    ",
"                      Xm>>>>e.>>>>>9.                                                        Xd>>>>>X>>>>>cX                    ",
"                      Xm>>>>p >>>>>9.                                                        Xs>>>>> >>>>>cX                    ",
"                      Xm>>>>e.>>>>>9                                                         Xs>>>>>.>>>>>v.                    ",
"                      XM>>>>eX>>>>>9.                                                         a>>>>>.>>>>>v.                    ",
"                      .m>>>>p.>>>>>9.                                                         >>>>>>.>>>>>b                     ",
"                      .M>>>>p.>>>>>9.                                                         %>>>>>.>>>>>b                     ",
"                      .M>>>4kX>>>>>9.                                                         O>>>>> :>>>>b                     ",
"                      .M>>>>S.>>>>>9       . . . . . .   .   .              . . X             .M>>>>X>>>>>b                     ",
" X.   .               Xm>>>>S@>>>>>9      ...XX.X.X..X..X.... .              . .              XD>>>>y>>>>>ZX                    ",
"XXX . . .             >>>>>>>D>>>>>a      ...........  .                                      XD>>>>>>>>>>>@                    ",
" . X.                 >>>>>>>>>>>><8                                                          .V>>>>>>>>>>>#      .        .    ",
"   XooXX      .      .&>>>>>>>>>>>>8      ..                                                  .V>>>>>>>>>>>#              ...   "
};
