/* XPM */
static char *_f51e559f74b4be4f3cad2d0610248e1GEeMX72Xf8u87VRp[] = {
/* columns rows colors chars-per-pixel */
"128 128 57 1 ",
"  c #150C17",
". c #150C18",
"X c #160C19",
"o c #170D19",
"O c #170D1A",
"+ c #180D1B",
"@ c #1B0F1D",
"# c #1B0F1E",
"$ c #1C101F",
"% c #1D1020",
"& c #1E1121",
"* c #1F1122",
"= c #201223",
"- c #211223",
"; c #231223",
": c #241323",
"> c #261323",
", c #271323",
"< c #271324",
"1 c #281424",
"2 c #291424",
"3 c #2A1424",
"4 c #2C1524",
"5 c #2D1524",
"6 c #2E1524",
"7 c #311625",
"8 c #331725",
"9 c #341725",
"0 c #361725",
"q c #371825",
"w c #381826",
"e c #391826",
"r c #3A1826",
"t c #3C1926",
"y c #3D1926",
"u c #3F1A26",
"i c #411A27",
"p c #421B27",
"a c #441B27",
"s c #461B27",
"d c #461C27",
"f c #481C28",
"g c #4A1C28",
"h c #4B1D28",
"j c #4C1D28",
"k c #4D1D28",
"l c #4F1E29",
"z c #501E29",
"x c #511E29",
"c c #521E29",
"v c #551F29",
"b c #561F29",
"n c #562029",
"m c #572029",
"M c #582029",
"N c #59202A",
"B c #5B212A",
/* pixels */
"                       >vBBBBBBBBBBv>       .                                .+              $qnBBBBBBBBBB<         .......@@@&*",
"                       2vvBBBBbBBBvc$                                      .++.              *qnBBBbbBBBBv7        .+@+..... ...",
"                      .=sBvBv6bBBBc8.                                      .++                2fBBBl4bBBvc=        .+@@+@.......",
"                      ..ivBBv@vBBnc2..                                       .                >lvBBf$BBBvs+.        .........  .",
"                       @sBBBB+cBBBb,                                                          >lBBBf+bBBvg@.                    ",
"                       @sBBBv+cBBBb8                                                          >cBBBs$nBBvh*.                    ",
"                       $jBBBB.cBBBb8+                                                         4bBBBs@bBBvj*.                    ",
"                       *jBBBv.cBBBbqo                                                        +8nBBBh@BBBvs*.                    ",
"                       =cBBBB@cBBBM9                                                         +4bBBBf+BBBBh*.                    ",
"                      .=cBBBn.cBBBM9+                                                        .8bBBBf+vBBvj*.                    ",
".                     .<cBBBB.cBBBn8o                                                        .8bBBBh@BBBvh*.                    ",
".                     .<jBBBv.cBBBnqo                                                        +9nBBBh.BBBvs*.                    ",
"                    ...2vBBBv.vBBBn8                                                         +qnBBBh+vBBBc*...                  ",
"                    ...2nBBBB jBBBB8+                                                         8bBBBj.BBBbj=.                    ",
"                    ...2nBBBB.nBBBBq..                                                       +9MBBBc+vBBBj=.                    ",
"                    ...2nvBnB.cBBBBr+                                                         8nBBBc.BBBBc=.                    ",
".                     .2vBBBv+cBBBBr..                                                       o8nBBBl BBBnh*.                    ",
"                      .6vBBBB cbBBvr..                                                       oqMBBBc.bBBvn*.                    ",
"                    ...<vBBBB+cBBBBr+                                                        oqMBBBl+BBBBc*                     ",
"                    . +6BBBBn.vBBBvr+                                                        o8nBBBc+vBBBc,.                    ",
"                      .6nBBBn.cBBBBq.                                                        +7BBBBl@bBBBj=.                    ",
"                      .6BBBBB.vBBBBq.                                                        .0vBBBl.vBBBc2.                    ",
"                      .6vBBBB.jBBBBr..                                                       .7BBBBl.BBBBj=.                    ",
"                      .7BBBBn+cBBBBr@.                                                       +0BBBBl@nBBBc1.                    ",
"                  ..  .7nBBBv.cBBBnr+.      ....                                             .rnBBBl nBBBv<..... ...   .  ..    ",
"   .     .    ..   .  @7nBBBv cBBBBr..       ...              ..                             +qBBBBl.BBBvv<.....................",
" ...     .. ...........7BBBBv@nBBBBr.. ............+.... +   ........+ +..+..+ +. .+.++.. ++++uBBBBl@nBBvv<*@@@++@@@+@+*@*@*****",
".....++++@+@@@+@@@@@&@=0BBBBv=vBBBBp11*1=>>>>><<22222266444462q277777777777rq7q7qqqqqqqrrurqrrjvBBBbiBBBvvggsriassiissghsgsgfhjj",
"<70rruruiiiiuiiiissshshcBBBBBhvBBBBnjcjccccjccccvvvvvvbvbbbnbbbbnnBvBvnnBBBnnnnBnBnBnBvBnnBnBvBBBBBBBBBBBBbBBBbBvvBbBBBBvBBBvBBB",
"cvBvvBBvvBvbvBBBBvvBBvvBBBBBBBBBBBBBBBBBBBBBBBbBBBbBvBBBBBMBBBBBBBBBBBBBBBBBBBBBBBBBBBBBBBBBBBBBBBBBBBBBBBBBBBBBvBBBBBBBBBBBBBBB",
"vBBBBBBBBBBBBBBBBBBBBBBBBBBBBBBBBBBBBBBBBBBBBBBBBBBBBBBBBBBBBBBBBBBBBBBBBBBBBBBBBBBBBBBBBBBBBBBBBBBBBBBBBBBBBBBBBBBBBBBBBBBBBBBB",
"vBBBBBBBBBBBBBBBBBBBBBBBBBBBBBBBBBBBBBBBBBBBBBBBBBBBBBBBBBBBBBBBBBBBBBBBBBBBBBBBBBBBBBBBBBBBBBBBBBBBBBBBBBBBBBBBBBBBBBBBBBBvBBvv",
"BBBBBBBBBBBBBBBBBBBBBBBBBBBBBBBBBBBbvnBvBvBcBvBvbBbbbBbbbbMMnnbbbbbbvvvvvcbbvcvjlfjjhaisiipi0ucvBBBv7BBBBbu6262<222<===#*@#@@+++",
"r62<2=>==>=@==*=*=***@$qvBBBv=vBBBvs*@@=*@*@@*$$=@==*====&=$*****======**=><=*=<$*==***<**=<<2iBBBBv,BBBBBu6627q77870ie000erweee",
"4*===>>=>>=26622677767qfBBBBBivBBBvvjvcccvvvvvBcbbbbvbbBMMbMnMBnbbbbvvvvvvbBvvbBvvvBvvBBvvvBvBBBBBBBBBBBBBBBBBBBBBnvBBBBBBBBBBBB",
"vBBBBBBBBBBBvBBnBBBBBBBBBBBBBBBBBBBBBBBBBBBBBBBBBBBBBBBBBBBBBBBBBBBBBBBBBbBBbbBBBBBBBBBBBBBBBBBBBBBBBBBBBBBBBBBBBBBBBBBBBBBBBBBB",
"BBBBBBBBBBBBBBBBBBBBBBBBBBBBBBBBBBBBBBBBBBBBBBBBBBBBBBBBBBBBBBBBBBBBBBBBBBBBbBBBBBBBBBBBBBBBBBBBBBBBBBBBBBBBBBBBBBBBBBbBBBBBBBBB",
"BvBBBBBBBBBBBBBBBBBBBBBBBBBBBBBBBBBBBBBBBBBBBBBBBbBBBBBbBBBBBBBnBBBBBBBBBBBBbbBBBBBvvvBvBvbBnBBBBBBBnBBBBBBvBvBBBvvvvBvvBnBBBvvB",
"cvvBBBvBvBvBvvvBBBBBnBBBBBBBBvBBBBBvvvBBvBvBBnBvvbvvbbvvbnbbbcccccvcccjcjcvckkkkkfclffffhihgsicvBBBBsvBBBvsiruiuiiuuiurtrr0yeeyy",
"4rrrrruriiruruuirqrrr0qhvBBBBrBBBBBcr00788074777704404552422,2,2>>22><=<==>===**&===**#*@@**@$rBBBBv@BBBBv7@@.++.@..@.@..+++++++",
"+.@.++++++.++.++.++.+++qBBBBv@cBBBBr+ooo .++ +  .+..+..+.+. +.          ........  ......  ...+rBBBBj+BBBBn4             ..      ",
"        .              qvBBBv bBBBBro                                           ..           +rBBBBc.nBBBv6.             .      ",
"        .              7BBBBv.BBBBBqo                                                        +uvBBBc.BBBbB6.                    ",
"                      +rvBBBn.cBBBBro                                                         rBBBBj.nBBBB6.                    ",
"                      .0BBBBb nBBBnro                                                       ..sbBBBc.BBBBB6...                  ",
"                      +0bBBBb+vBBBBro                                                       .+ubBBBc.nBBBv6...                  ",
"                      +0BBBBb bBBBcr+                                                       .+uvBBBc+BBBBB4..                   ",
"                      +rbBBBb+vBBBBr+                                                        .ibBBBc+nBBBB4                     ",
"                      .0BBBBv@bBBBbq..                                                      .+tvBBBc.vBBBn7.                    ",
"                      .0bBBBv+bBBBBr..                                                      .+tvBBBc+BBBBB7.                    ",
"                      +qvBBBv+bBBBnr+                                                        .ivBBBc.BBBBB7.                    ",
"                     ..0BBBBv+bbBBB9+                                                        @uBBBBc nBBBnq.                    ",
"                      +qvBBBv@vBBBBq                                                         .rvBBBc.BBBBv7+                    ",
"                      .qBBBBv.vBBBnq+                                                        @uBBBBc.bBBBB7+                    ",
"                      +qvBBBv.vBBBBq+                                                        .uvBBBc.vBBBnq.                    ",
"                     ..qBBBBc@vBBBBq+                                                         rBBBBc@vBBBB8.                    ",
"                      +qBBBBv.nBBBBqo                                                       .@uBBBBj.nBBBB7.                    ",
"                      .rBBBBn.vBBBbqo                                                        .rvBBBn.BBBBn7+                    ",
"                       qBBBBv+vBBBBro                                                        .rBBBBc.vBBBBq.                    ",
"                     ..qBBBBn.vBBBbq+                                                       .@uvBBBn@vBBBB7                     ",
"                      .rBBBBn.vBBBvu..                                                       +uBBBBb.vBBBB6@                    ",
"                       qnBBBn.vBBBvq+                                                        +rBBBBc+vBBBBq.                    ",
"                      +rBBBBn.BBBBBq+                                                         uvBBBv@vBBBnq+                    ",
"                      +rnBBBn.vBBBbq                                                         +rBBBBv vBBBB8.                    ",
"                      .0BBBBB.vBBBbr+                                                        +unBBBc+nBBBb9+                    ",
"                      @rvBBBc+vBBBb0.                                                        .rBBBBb nBBBB9                     ",
"                      .rBBBBv vBBBbr+                                                        +rvBBBb+bBBBbq+                    ",
"                      @evBBBn+vBBBb9o                                                       ..uBBBBnovBBBB9+                    ",
"                      .eBBBBv vBBBbq..                                                       .uvBBBbobBBBv0                     ",
"                      .evBBBB vBBBvq.                                                        +rBBBBc bBBBB0+                    ",
"                    . .rBBBBv+vBBBvr@                                                         unBBBb+bBBBnq.                    ",
"                    ..+ubBBBv+bBBBvr.                                                        +rBBBBbobBBBB8+                    ",
"                       0BBBBv+vBBBv0+                                                       .@uBBBBb+nBBBv0.                    ",
"                      #rbBBBv+vBBBv0+                                                        .0vBBBb vBBBBr+                    ",
"                     ..0vBBBv+bBBBv0.                                                        .uvBBBc.BBBBBq                     ",
"                     ..rBBBBv.vBBBBr+                                                        +rnBBBn vBBBBr.                    ",
"                      +rvBBBv+vBBBM9+                                                        .rBBBBn nBBBnq...                  ",
"                      .rBBBBv+vBBBB8                                                         +rnBBBc bBBBBq+ .                  ",
"                      +rvBBBv vBBBn9+                                                        +rBBBBb.vBBBBr.                    ",
"                       uBBBBB vBBBBqo                                                       ..rvBBBb@vBBBvq+                    ",
"                      +rBBBBv BBBBb9o                                                        +0vBBBv bBBBvr+                    ",
"                      +ynBBBB.cBBBB8o                                                        +uBBBBv bBBBB0.                    ",
"                      .yBBBBb bBBBB8o                                                        +unBBBc+nBBBB0+                    ",
"                      .ynBBBb+bBBBB4o                                                         qnBBBB vBBBv0.                    ",
"                      .rBBBBc@vBBBB7+                                                       ..yvBBBv+bBBBbr+                    ",
"                     .+unBBBv+vBBBv4                                                        .+wBBBBv+vBBBBr+                    ",
"                      +rBBBBc@vBBBb8+                                                       .+rvBBBv+nBBBnr                     ",
"                      +uvBBBc.vBBBB8+                  .                                     .rBBBBv.nBBBBr.   .                ",
"   .  ..              +rBBBBb+BBBBn7+.     .       .  ..       . .  +               ..      .+0vBBBv vBBBBr+.  .........  +   ..",
"...... .      ..    ...ubBBBb+bBBvvq+...    +.+. @.......   +++ .@...++.+ooo+ oooooo..++ + +.@qvBBBc+nBBBbu@@.+@.@@&@@@@+$@@@@@=",
"@*$@**==:=*,****>*>>>>>iBBBBb>bBBBBi62<64252626626660777779898r9000007q088qqqqqqqqqqruqrrruriujvBBBBuBBBBBcirsifiisiiissffffgjjg",
"uiaaissjafffhhhhsllcjjcvbBBBbcBBBBvvccvvbbbcvvvvvvvvvvvvBvbbbbbbvbvvvBvnbBnnMMMMnBBMvBnnBnBBvBBBBBBBvBBBBBvBvvvBBvBvBvvBBbbBBBBB",
"vBvBBvBbvBvBBnBnbBbBBbBBBBBBBBBBBBBBBBBBBBBBBBBBBBBBBBBBBBBBBBBBBBBBBBBBBBBBBBBBBBBBBBBBBBBBBBBBBBBBBBBBBBBBBBBBBBBBBBBBBBBBBBBB",
"vvBBBBBBBBBBBBBBBBBBBBBBBBBBBBBBBBBBBBBBBBBBBBBBBBBBBBBBBBBBBBBBBBBBBBBBBBBBBBBBBBBBBBBBBBBBBBBBBBBBBBBBBBBBBBBBBBBBBBBBBBBBBBBB",
"BBBBBBBBBBBBBBBBBBBBBBBBBBBBBBBBBBBBBBBBBBBBBBBBBBBBBBBBBbBBbbBbBBBBBBBBBBBBBnBMBBBBBnBBBBBBBBBBBBBBBBBBBBBBBBBBBBBBBBBBBBBBBBBB",
"BvBvvBvBvBnBnBnBBbBbBbbBBBBBbBBBBBBvbbbbbbvvvvvvvvvvvvvccccvlbbbcjhshsfflsfsiiiiiauirauqqq0qqqfBBBBv7BBBBvs2222<2<<<1*@*@*#*@*@@",
"2<<<========*@=@==@@<=&fbbBBb>bbBBv0*@@$=@*$$*$$$*@@*@*$=*=**@=*@>==&&&<@>%*&=*<===<=====>====iBBBBB>BBBBbs26<6<2<22<<2<<<<2>222",
"vvbbbbvvbvvvvvbvvbbbbbvvBBBBbbBBBBBBvBBvvBnnvBBvBvBvBvvBvvvvbvBBvbbBvvvBbbbBvvvbbbvvvBvBBBvBnBBBBBBBBBBBBBBBbBBBBBBBBBBBBBBBBBBB",
"bBBBBBbBBBBBvBBBBBbBBBBBBBBBBBBBBBBBBBBBBBBBBBBBBBBBBBBBBBBBBBBBbBBBbBBBBBBBbBBBbBBBBBBBBBBBBBBBBBBBBBBBBBBBBBBBBBBBBBBBBBBBBBBB",
"bBBBBBBBBBBBvBBBBBBBBBBbBBBBBBBBBBBBBBBBBBBBBBBBBBBBBBBBBBBBBBBBBBBBBBBbBBBBBBBbBBBBBBBBBBBBBBBBBBBBBBBBBBBBBBBBBBBBBBBBBBBBBBBB",
"vvbbbvBvvvvvvvbvBBvbBbvvBBBBBbBBBBBBvBvvBvBBBnBnbbbbBvBbbbbvbbbbbvbbvvbvBbbBvvBvbbbBvvBvvvvBBvBBBBBBvBBBBBvbvnnBNnBvBbvBBvvnBnvB",
"ccvjvvcvccvcvvvccbjcbbcvBBBBbbBBBBBvccccjcjcjjjcvjvjjjjcjjvccfllvkjcsgcjjjcjsgjgcfffsssshssgsscvBBBBiBBBBBvsspiiiiuiiiiiiisiiass",
"<<<<<<222<<<<2<2<<<22<6sBBbBv8bBBBBu<>>>>>>=2>==<=>====<======****=*******&@*@@*@&=@@@*@@*@@@$rBBBBv@nBBBbu@@@.@+.@.@.@.@@++.@.+",
"......+ ...+.+..+.+  .@tBBbbv%bBBBv6.... ... .........  ...   ..   +.. ..........   ........  9bBBBv@cBBBvr...  ........   .....",
"....                  .pbBBBb+bbBBb4            .                               .            +9BBBBv+vBBBvr+                    ",
".. .                  @rBBBBv+bbBBB7                                                         +9bBBBv.vBBBBr+                    ",
"                      .iBBBBb+bBBBv0.                                                        +qBBBBv.bBBBBu.                    ",
"                      .iBBBBv+BBBBv6..                                                       .qMBBBv.vBBBBu.                    ",
"                      .uBBBBc.vBBBv<.                                                       ..8BBBBb vBBBBu...                  ",
"                      @ivBBBc bBBBB6+                                                         9bBBBb vBBBvr+                    ",
"                      +sBBBBc.BBBBv3.                                                        +9BBBBb+bBBBvr.                    ",
"                     ..ivBBBc@bBBBB7.                                                         8BBBBb.bBBBBu+                    ",
"                      .ivBBBc+vBBBb7                                                          rnBBBb.bBBBvu+                    ",
"                      .iBBBBc+BBBBB<+                                                        +8BBBBv+bBBBvr.                    ",
"                      .pvBBBc@vBBBb3                                                         +0vBBBv+bBBBBu.                    ",
"                      @rBBBBj.BBBBB3.                                                        +7BBBBn+cBBBvu+                    ",
"                      @iBBBBc.nBBBb3.                                                        +7BBBBb.vBBBbs+                    ",
"                      .uvBBBj.BBBBB3.                                                        +0vBBBb+vBBBBr+                    ",
"                       iBBBBj@nBBBv2+                                                        +0BBBBb+vBBBvu+                    ",
"                      @ivBBBc.BBBbb7.                                                         7nBBBb@vBBBvy.                    ",
"                    ...aBBBBv.vBBBB7+                                                         >BBBBb vBBBBs...                  ",
"                     ..avBBBc@bBBBb3                                                          @nBBBb.nBBBbi...                  ",
"                       aBBBBk+BBBBb3..                                                        +nBBBb.cBBBbi..                   ",
"                      +ivBBBf@bBBbb3..    X     ........ . ..... . .       .. + ...            lBBBB+cBBBvy.                    ",
".........             +ivBBBf@BBBBb3      X+.++++XXX..+X+ .+.....            . +.             +lBBBB6vBBBBg+      .        .    ",
"+++......             =vBBBBbgBBBBbt       +.+XX.XXX..  ....                                  +fBBBBnBBBBBc@      .        .   .",
" . .....      .       <BBBBBBBBBBBb<            ..    X                                       +iBBBBBBBBBBv=      .       ..    ",
"...++++..    .       .@BBBBBBBBBBBb<     X X     .                                             iBBBBBBBBBvv@              ....  "
};
