/* XPM */
static char *ef92804301b7497e9998c74b35e7a13e1JkJGVP1von50b4S[] = {
/* columns rows colors chars-per-pixel */
"128 128 84 1 ",
"  c #4123AB",
". c #4223AC",
"X c #4324AC",
"o c #4424AC",
"O c #4524AC",
"+ c #4624AC",
"@ c #4725AC",
"# c #4726AC",
"$ c #4826AD",
"% c #4B28AD",
"& c #4C28AD",
"* c #4D28AD",
"= c #4F29AD",
"- c #4F2AAE",
"; c #502AAE",
": c #542CAE",
"> c #552CAE",
", c #562CAE",
"< c #562DAE",
"1 c #582EAF",
"2 c #5A2FAF",
"3 c #5B30AF",
"4 c #5C30AF",
"5 c #5F31AF",
"6 c #5F32B0",
"7 c #6032B0",
"8 c #6133B0",
"9 c #6233B0",
"0 c #6234B0",
"q c #6334B0",
"w c #6736B1",
"e c #6837B1",
"r c #6B38B1",
"t c #6C39B1",
"y c #6D39B1",
"u c #6E39B1",
"i c #6E3AB2",
"p c #703BB2",
"a c #713BB2",
"s c #713CB2",
"d c #723CB2",
"f c #743DB2",
"g c #753DB2",
"h c #763EB3",
"j c #783FB3",
"k c #7940B3",
"l c #7C41B4",
"z c #7D42B4",
"x c #7E42B4",
"c c #7F43B4",
"v c #8043B4",
"b c #8245B4",
"n c #8345B4",
"m c #8346B5",
"M c #8646B5",
"N c #8647B5",
"B c #8747B5",
"V c #8848B5",
"C c #8A4AB6",
"Z c #8B4AB6",
"A c #8C4AB6",
"S c #8E4BB6",
"D c #8F4CB6",
"F c #904CB6",
"G c #924EB7",
"H c #954EB7",
"J c #964FB7",
"K c #9750B7",
"L c #9850B7",
"P c #9951B7",
"I c #9A52B8",
"U c #9B52B8",
"Y c #9C52B8",
"T c #9F55B8",
"R c #9F56B8",
"E c #A056B8",
"W c #A257B9",
"Q c #A258B9",
"! c #A458B9",
"~ c #A558B9",
"^ c #A759B9",
"/ c #A859B9",
"( c #A85AB9",
") c #A95AB9",
/* pixels */
"                       6T))))))))))Y8.      .                                +.#            .*kE))))))))))6.        .......+$$>6",
"                       qU))))Q~)))~U*                                      ..$.             X*hT)))~E~))))q#       .#*$#+...#.+.",
"                       >Z~~)~tE))~Yf$                                      #$$.              +8J)))Hq~))QF>        .$*$##.#.... ",
"                       $M~))Q#L)))Y8.                                        .               +2U~))D*)))~Z%         ..#......   ",
"                       %A~))E#U~))Ee.                                                         2Y~))S*E))~Z*                     ",
"                       *D)))~$Y)))Et.                                                       ..8Y)))S*)))~A;X                    ",
"                       ;H)))E#Y)))Et#                                                        #qE~))S*~))~D:.                    ",
"                       >H~))~#Y)))~d.                                                        .t~)))S$))))A:.                    ",
"                       2U)))Q#Y)))~d#                                                       .+tE)))F*~)))F1.                    ",
"                      .2U)))Q#Y)))Qd#                                                       .#pE)))F#Q))~F,.                    ",
".                     .4U)))E.Y)))~d+                                                        +dE)))F$))))F1                     ",
".                     #8U)))E#Y)))Ed+                                                        +tE)))F$Q)))F;.                    ",
"                      .qY)))~.U)))~h+                                                        +t~)))H#Q)))F,..                   ",
"                      .qY)))~#Y)))~h                                                         +d~)))K#Q)))H2.                    ",
"                      #qE)))~+Y)))~j#                                                        #d~)))U#E)))A8.                    ",
"                    ..+qE)))E$Y)))~h+                                                       X#dE)))U.~))~U>X                    ",
".                      eY))))#Y)))~j#                                                        +hE)))L@Q)))H1X                    ",
"                      #qE)))E#Y)))~j+                                                        .dQ)))L Q)))K1X                    ",
"                      XeE)))~+Y))))h+                                                        #hE)))L#~)))K>#                    ",
"                      $qE)))E#Y))))x+                                                        #dE))~U#E)))K3.                    ",
"                      #e~))))+U~))~x$                                                       .+hE)))L@Q))~L3X                    ",
"                      XrE)))E+Y)))~jO                                                        #dE)))L@Q)))U4X                    ",
"                      #r!)))E#Y)))~xO                                                        +h))))R$Q)))L8                     ",
"                      .rQ)))E$Y)))~x                                                         +hE)))L$E))~L8.                    ",
"                  ..  +p)!))W+U))))x#             .           ..    ...     .               ..j~)))L$Q//)U6+  .        X  ..    ",
"                   . .+tQ)))T+U)))Qx+             ..     .    ..    ..      ..       .      .+j~)))L$Q)))U6....X.X  .. X...X....",
"     .    . ........ .+rQ)))W#T)))~x.   .# .X.XXXXX###XX###X..#+++#.+.+#+#.#.X.#+#XX+.+$#$##+#j~)))L*Q)))Yq##$*%**$****;**;>>>>>",
"X##.#+$#$$$*%%*%***--->j))))W1T))~)V48824288668qqqqq8qqqqrqretertttttptpdtddffffhhkfjhhjjkfxxvH~)))Qb()))QFbMMMVMZZMZZZZAAFFFAJL",
"ethjhxxxcbbbbMZMZZZZCCSU))))~H)))))QLLLLLYYULEYYELUTTTTTEETTEEETEEE~E~EQ~E~EE~Q)E~~~E)~~~~~~~~~))))/(///))))E)Q~~)~)~)~)~))~))~)",
"JE~Q~~~~~~)E~~~~Q~~~)~/~)))))!)))))~)))~)))~~)~)))~)))))))))))))))))))))))))))))))))))))))))))))))))(/)/))~)))))))))))))))))))))",
")~)~))))))))))))))))))))))))))))))))))))))))))))))))))))))))))))))))))))))))))))))))))))))))))))))))))))))))))))))))))))))))))))",
"~)))))))))))))))))))))))))))))))))))))))))))))))))))))))))))))))))))))))))))))))))))))))))))))))))))))))))))))))))))))))))~Q)~Q)",
"))))))))))~)))))))))))((((((~)~))))~Q~QQQ~E~QQQQ~~E~EQ~QEEQEEEETQQTQRTTTTTTTTTUDUFFFFMMMMMMbkxF~)))Qd((/))xeeqe888882>2>;;****#$",
"hqeq8844443>>>:3>::*:::k((//Q>E)))~b>*;>*;,*>**>>;1,,1>>1,1;;11>>>>>>>>>:>>>>>>>;>>;>>;6>>>448b~))/Eq///)Qxerttpfpppffjffffxjxkj",
"e,,,>438448q0ee0rdddhdhF/)//~V~))))RTLTETEERTTEEEEEETTQQEQ~EQQQWQQQQQ~QQE))Q~)~))~)~)~~~)))~))))))))))))))))))))))))))))))))))))",
"))))))))))~))))))//)~)///))/)))))))~///))))))))))))))))))))))))))))))))))))))~))))))))))))))))))))))))))))))))))))))))))))))))))",
"))))))))))))))))//))))//)))))))))))))))))))))))))))))))))))))))))))))))))))))))))))))))))))))))))))/)/))))))))))))))))))))))))))",
")~~))))))))~))))//))))//))))))))))))))//)))))))))))))))))))))))))))~~)))~))))))))))~))~)~))~)~)))))//())))~Q~~~~~)~)~)~~~~~~)~~)",
"LTQ~~~Q~)E~)Q~~)!!!//!!!)/))((())))~Q(EEQQ~QQ~QQEEEEEEEYEETETYYYRIIIULLUKHHKFHHHFLFFAFFZCSZZAAU)))/QZ())))DMbvbbvxxxxxxxxxxfxjxk",
"tdkxxxzzccccccckccjvkjcF/())(kE~)))Dhhdhfftdtdttdttetreeww8q88qq0400843266>662>>>>>>1;-1;--*;;v~))(R*Q)))Et$$$##+#$###+#$#.###$$",
"+#######@####+####.$$O@h~)))T#T)))~x#+++#XXXXXX#.#..#.+.+.#.+. + @ XX.X.........XXXX X X  O  +j/)))L$E)))Er#            ..      ",
"  . ...        .      Oh))))EXT)))~x+   .X  ..                            .. .               +x~))/R.~)))Qe.            ..      ",
"    .                 OdE)))E#T)))~h+.  .                                                    +j~))/T.~)))~t+                    ",
"                      Oh))))T+T)))~x.                                                        +v~)))L#Q)))~e.                    ",
"                     .$fE)))E#T)))~j#                                                        +x~)))E@~)))ErX..                  ",
"                     ..f))))E.T))))j.                                                        +x~)))L$E)))~rX                    ",
"                      .f~)))T+T)))~h+.                                                       $v~)))L@E)))Qt.                    ",
"                      +f~)))T+T)))~x.                                                        @j~)))T@Q)))Et$                    ",
"                      +d~)))T#T)))~j#                                                        $c~)))Y+~)))~t.                    ",
"                      Oh))))T+T))))k+                                                        +c~)))Y.~)))~t+                    ",
"                      OfQ)))T+T)))~k.                                                        #x~)))U#E)))~t+                    ",
"                      Of~)))T.T)))~j+                                                        #x~)))U#~)))~dO                    ",
"                      OhQ)))T+T))))j+                                                        #v~)))U.E)))~d.                    ",
"                      Oj))))T+T))))j+                                                        #x~)))Y+E)))~d+                    ",
"                      Oh)~))T.T)))~h.                                                        #x~)))Y+E)))~d+                    ",
"                      Oj~)))T+T))))h#                                                        #v~)))Y#E)))~d+                    ",
"                      @j/)))E+T)))~h#+                                                      .#xQ)))Y#E)))~hO                    ",
"                      Of/)))Y+T))))j                                                         #x))))Y+E)))~dO                    ",
"                      @j/)))E+E))))h@                                                        #x~)))Y+E)))~h+                    ",
"                      Oj/)))E@Y))))j                                                         #x~)))Y+E)))~t+                    ",
"                      Oj~)))TOE)))/h@                                                       ..x))))E+E)))~d#                    ",
"                      $j))))E E)))!hO                                                       .+x~)))Y+E)))~h                     ",
"                      Oj~)))E+E)))~hO                                                       .+x~)))E$E)))~dX                    ",
"                      Oj~)))E+Y)))~hO                                                       .#x~)))Y+E)))~hX                    ",
"                      #k~)))T#T)//!f+                                                        +x~)))T+T)))~fO                    ",
"                      +h~)))T+T)///h+                                                        +xE)))E+T)))~fO                    ",
"                      +x~)))T#T)))Eh.                                                        +x~)))E#E)))~h+                    ",
"                      #k~)))T.T)))~h#                                                        +x~)))Y+E)))~f+                    ",
"                      +k~)))T+T)))/h+                                                        +x~))~T.E)))~f+                    ",
"                      .k~)))T+T)))(d.                                                        +x~)))T+T)))~d                     ",
"                      #k~)))T+E)//!h#                                                        +x~)))E#E)))~h#                    ",
"                    ..+k~)))U#E)//(pX                                                        #h~))~T+E)))~fX                    ",
"                      .x~)))T.E)/)Ed@                                                        +k~)))E#T)))~h+                    ",
"                      #j~)))U#E)))(h@                                                        #x~))~E#T)))~h+                    ",
"                      +x~)))E#T)))(d                                                         +x~)))E+T)))~d@                    ",
"                      +j~)))T+E)))(u@                                                         k~))~E+E))))h@                    ",
"                      +x~)))T#E)//!d@                                                        .j~)))E+E)))~h@                    ",
"                      #h~)))T#E)//!f@                                                        +x~)))Y#Y))))k                     ",
"                      +x~)))T+T)/)!hO                                                        +j~)))E+T))))h@                    ",
"                      +x~)))T T)))!dO                                                        #k~)))E+T)))~h@                    ",
"                      +x~)))T#T)))/d@                                                         h~)))E#E)))~h.                    ",
"                      +x~)))T+T)))(dO                                                        #x~)))Y+E))))j#                    ",
"                      +x~)))T+E)//!t@                                                        .j~)))E+Y))))j#                    ",
"                      +x~)))T+E)///dO                                                        +j))))E+E)))~hX                    ",
"                      #x~)))U+E)))~t@                                                        +j~)))E.Y)))~j#                    ",
"                      +x~)))U#E)))~d@                                                        +j))))E#E))))j.                    ",
"                      #x~)))T+T)))(dO                                                        +j~)))Y#T)))~j+   .                ",
"                      #x~)))Y+~)))(tO                                                        +j))))EXE))))j.   .                ",
"  ..            .     #x~)))U.Q)))~pX. #        ...X  . ....  ..    .                        +j~)))E+T)))~h#. .... X.XXXO +.....",
"...... #   # ++ .....X$v~)))U#))))Ei#X.#@OOOOO+ XXXXXX##X..#.#X##+++##XXX#+.@$.#.+#.@$O#+###$$j))))E$E))))x%#####*##%%%%****;*;;",
"$>;>->1;;>2212>26228248A))))T8Q))))bqqqqe8ewweerrrrrrrrtttiitftdddddhdhdhdhhhhjjjjhhjjhcjxhvxxJ))))EbE)))~HbbMbMZMMZMZAZAAFAAFFJ",
"vMMCCCCSDFAFAHFFFUFHKJLE~)))~U)))))EYYUEYEEEEEEETTTEQTQTQEW!EE)Q~E~EQQEQE~E~~~~E~~~))E~~)~~~~~~)))))!)))))))~~)~)~)~)~~)~)~)))))",
"Q~)Q~)~~)~E))~)~)~)~)~)))))))~))))))))~)))/)///)))~))~))))))))))))))))))))))))))))))))))))))))))))))))))))))))))~)))))))))))))))",
"~))~))))~)))))))))))))))))))))))))))))))))))//))))))))))))))))))))))))))))))))))))))))))))))))))))))))))))))))))))))))))))))))))",
"~)))))))))))))))~))~))))))))))))))))))))))))))))~)))))))))))))))))))))))))))))))))))))))))))))))))))))))))))))))))))~))~))))))))",
")~Q)Q~Q~QQQE)Q~E)QQ)QEQ~)))))E)))~))EETEETEEEYEETTTTEEEYYYYYYYYYUHFFFFFFFAFZMbMbMbbMbbxhhjjjjjF))))Wp~)))~Aeq88e88688>>>;;>;>;;*",
"22333>6>>>>*>:>:-:::>->V~)))E>Q)))~h,**;>->-;;;;>;>**;1:;,,*;;;;**;;;;:1>*>*>*;;*1*:*,>>2>2,22v~)))W8Q)))~Mqe8qqqqq68qq8888q8qqr",
"TTTQTTTTETTTTTTETRTTTTR~))))~Q)))))~QEQ~~QQQ~E)E~QQQQQQQ~~~~~)~~~)~~)~Q~)~Q~~)~~~~)~))))))/)))))))))))))))))))))))))))))))))))))",
"~~))))))))))~)))))~)))))))))))))))))))))))))))))))))))))))))))))))))))))~)))))))))))))))))))))))))))))))))))))))))))))))))))))))",
"))))))))))))))))))))))))))))))))))))))))))))))))))))))))))))))))))))))))))))))))))))))))))))))))))))))))))))))))))))))))))))))))",
"~~~~~)~)~)~~)~~~)~~)~)~~)))))~)))))~~))))))~)~))))))))~)~))))~))))~)~)~))~)~~~)~)~~~~))~)))~)~)))))))))))))~)E~~~~Q~~~~Q~Q~~)~)~",
"FKKLLLLKKULTKYYUUUUUKUUQ))))~T~))))TLLLJUKKKLLJJHHHFHHHHHHHAFJFFFFFSSSFFDDDFDDZDSSCSAAZZZBMMBAL))))!B)))))UMMMMMMMMbMbbMMMbMMMSM",
"80q6qqqq6qqqqq6qqqqqqqeD~)))EeQ)))~x88446363426222121126112>2,>>>>6:::::::::*>>*--;;;;;;;;;;*=v!)))E*T)))!x*#$###########$######",
"# XXXXXX#XXXXX#XXXXXXX#b))))U$Q)))Er# # X...#..X+.#XX...#...#...XXXX...... X.XX...XX.        Of/)))T+U)))Ex#.+. X   ....XX .. ..",
"X                     @M~)))U#Q)))QrX.          .               XX              ..           Of!)))E+T)))Qx#            ..      ",
".                     @v))))U#Q)))Qr#.          .                                .           Of!)))E.U)))~j+                    ",
"                      #b~)))U#E)))Qr.                                                        Oh!)))E#T)))~x+                    ",
"                      $b))))U$Q)))Qr.                                                        Oh!)))W.E)))~x+                    ",
"                      #v~)))U#~)))Qe.                                                        Od~)))T#T)))~x+..                  ",
"                      #b~)))K.E)))Qr#                                                        @h~)))W+T)))~x+..                  ",
"                      $b))))U+E)))~t.                                                         f~)))T.T!))~x+                    ",
"                      $b~)))K#))))Qq.                                                        Od~)))T+T)))~x#                    ",
"                      $b))))L#E)))Ee..                                                       +h~)))E+T)))~x+                    ",
"                      #M~)))L$~))))q#.                                                       +h~)))E+E)))~x#                    ",
"                      #M))))L$~)))~e.                                                         h~)))E#T)))~k#                    ",
"                      .b~)))L$E)))~q+                                                        Od~)))E#U)))~xX                    ",
"                      #M))))L#~)))Ee.                                                        #d~)))E#U)))~x+                    ",
"                      #M~)))L#~)))~q.                                                        .h~)))E#E)))~x+                    ",
"                      @M))))K#E)))~e#                                                        .d~)))E$Y)))~x#                    ",
"                      #M~))~U#Q)))Eq.                                                        #t~)))E#Y)))~x+                    ",
"                    .##M))))L#~)))Ee#.                                                        8))))E+E))))b#..                  ",
"                     ..M~)))L%E)))~q+.                                                       .;E)))E+Y)))~v# .                  ",
"                      .M))))U+Q)))~q.                      .                                  $E)))E+Y))))b.                    ",
"                      #M~)))A#~)))Ee.     ..........................       X... ...           #U)))E#Y)))~v#                    ",
"+........             +M~)))A*))))~q.    .#.+++##++#X#..#.XX.....          ......             +F)))EeT))))S$      .        .   .",
"#+#....#.             2T))))EF))))~t      #.++ .++..XX.#...                                   #A))))~)))))U*      .        .   .",
"+.#.....              2))))))))))))8      ..    .     .                                       +A))))))))))E*      .       ..    ",
"...+#$#.             .,))))))))))))8      +.                                                ..+M))))))))))Q%              .#..  "
};
